<svg width="1920" height="960" viewBox="0 0 1920 960" fill="none" xmlns="http://www.w3.org/2000/svg">
  <defs>
    <radialGradient id="bgGlow" cx="50%" cy="30%" r="70%">
      <stop offset="0%" stop-color="#10284f"/>
      <stop offset="42%" stop-color="#061426"/>
      <stop offset="100%" stop-color="#030712"/>
    </radialGradient>
    <linearGradient id="titleGrad" x1="340" y1="140" x2="960" y2="225" gradientUnits="userSpaceOnUse">
      <stop stop-color="#30c8ff"/>
      <stop offset="0.52" stop-color="#5978ff"/>
      <stop offset="1" stop-color="#b148ff"/>
    </linearGradient>
    <linearGradient id="cyanPurple" x1="0" y1="0" x2="1" y2="1">
      <stop stop-color="#14d9ff"/>
      <stop offset="1" stop-color="#a94cff"/>
    </linearGradient>
    <linearGradient id="greenCyan" x1="0" y1="0" x2="1" y2="1">
      <stop stop-color="#62f27d"/>
      <stop offset="1" stop-color="#00d6d9"/>
    </linearGradient>
    <linearGradient id="purplePink" x1="0" y1="0" x2="1" y2="1">
      <stop stop-color="#7b4dff"/>
      <stop offset="1" stop-color="#f06cff"/>
    </linearGradient>
    <filter id="softGlow" x="-50%" y="-50%" width="200%" height="200%">
      <feGaussianBlur stdDeviation="5" result="blur"/>
      <feMerge>
        <feMergeNode in="blur"/>
        <feMergeNode in="SourceGraphic"/>
      </feMerge>
    </filter>
    <filter id="textShadow" x="-20%" y="-20%" width="140%" height="140%">
      <feDropShadow dx="0" dy="4" stdDeviation="4" flood-color="#000814" flood-opacity="0.75"/>
    </filter>
    <style>
      .font { font-family: Inter, ui-sans-serif, system-ui, -apple-system, BlinkMacSystemFont, "Segoe UI", sans-serif; }
      .white { fill: #f7f7ff; }
      .muted { fill: #aab3c8; }
      .small { font-size: 28px; }
      .body { font-size: 27px; line-height: 1.4; }
      .cardTitle { font-size: 30px; font-weight: 800; }
      .cardBody { font-size: 23px; fill: #f4f5ff; }
      .chip { font-size: 27px; fill: #f2f4ff; font-weight: 650; }
    </style>
  </defs>

  <rect width="1920" height="960" fill="url(#bgGlow)"/>
  <path d="M1310 892C1510 760 1722 776 1920 682V960H0V897C428 943 899 1020 1310 892Z" fill="#060022" opacity="0.62"/>
  <path d="M1578 805C1712 789 1818 746 1920 710" stroke="#8434ff" stroke-opacity="0.28" stroke-width="2"/>
  <path d="M1540 842C1697 825 1815 790 1920 750" stroke="#00d6d9" stroke-opacity="0.15" stroke-width="2"/>

  <g filter="url(#softGlow)">
    <text class="font" x="42" y="250" font-size="205" font-weight="700" fill="url(#cyanPurple)">{</text>
    <text class="font" x="242" y="250" font-size="205" font-weight="700" fill="url(#cyanPurple)">}</text>
    <path d="M102 158L170 105L252 158L239 174H116L102 158Z" fill="#5876ff"/>
    <path d="M120 183H235V225H120V183Z" fill="#557cff" opacity="0.9"/>
    <path d="M145 188V224M212 188V224" stroke="#061426" stroke-width="8"/>
    <path d="M153 151C160 125 186 123 194 151C210 159 214 184 194 196C187 226 156 218 157 191C136 180 135 159 153 151Z" stroke="#061426" stroke-width="8" stroke-linecap="round"/>
    <path d="M172 133V214M153 170H191M162 150L151 140M184 151L199 140M161 198L149 208M188 198L202 210" stroke="#061426" stroke-width="7" stroke-linecap="round"/>
  </g>

  <g filter="url(#textShadow)">
    <text class="font white" x="340" y="123" font-size="82" font-weight="850">Codex</text>
    <text class="font" x="340" y="212" font-size="88" font-weight="900" fill="url(#titleGrad)">Thinking Dojo</text>
    <text class="font muted" x="340" y="272" font-size="32" font-weight="750">Sharpen Your AI Coding Skills. Deepen Your Thinking.</text>
    <text class="font white" x="340" y="317" font-size="24">A practice dojo for mastering AI-assisted development with OpenAI Codex.</text>
    <text class="font white" x="340" y="350" font-size="24">Train your <tspan fill="#00e087" font-weight="800">thinking</tspan>. Write better <tspan fill="#26b4ff" font-weight="800">code</tspan>. Solve harder <tspan fill="#b14cff" font-weight="800">problems</tspan>.</text>
  </g>

  <path d="M982 135L997 171L1033 186L997 201L982 237L967 201L931 186L967 171L982 135Z" fill="#7b82ff"/>
  <path d="M1026 225L1035 247L1057 256L1035 265L1026 287L1017 265L995 256L1017 247L1026 225Z" fill="#7b82ff"/>

  <rect x="1085" y="78" width="770" height="86" rx="20" fill="#07111f" fill-opacity="0.72" stroke="url(#cyanPurple)" stroke-width="2"/>
  <text class="font chip" x="1168" y="130">OpenAI Codex</text>
  <text class="font chip" x="1412" y="130">Python</text>
  <text class="font chip" x="1573" y="130">CLI</text>
  <text class="font chip" x="1708" y="130">Markdown</text>
  <circle cx="1133" cy="121" r="23" stroke="#00e0a4" stroke-width="6"/>
  <path d="M1133 95V147M1107 121H1159" stroke="#00e0a4" stroke-width="6" stroke-linecap="round"/>
  <path d="M1373 97H1397V121H1421V145H1397V169H1373V145H1349V121H1373V97Z" fill="#ffd44d"/>
  <rect x="1534" y="105" width="36" height="36" rx="5" stroke="#e8ebff" stroke-width="5"/>
  <path d="M1543 116L1554 123L1543 130M1558 132H1567" stroke="#e8ebff" stroke-width="4" stroke-linecap="round"/>
  <path d="M1672 99C1687 99 1699 105 1708 116C1717 105 1729 99 1744 99V153C1730 153 1718 158 1708 169C1698 158 1686 153 1672 153V99Z" stroke="#844cff" stroke-width="6" stroke-linejoin="round"/>
  <path d="M1333 93V151M1499 93V151M1645 93V151" stroke="#8b92aa" stroke-opacity="0.55" stroke-width="2"/>

  <rect x="1248" y="205" width="534" height="124" rx="18" fill="#10112b" fill-opacity="0.82" stroke="url(#purplePink)" stroke-width="2"/>
  <rect x="1280" y="234" width="68" height="68" rx="18" stroke="#923cff" stroke-width="4"/>
  <path d="M1309 249C1318 235 1335 242 1332 258C1347 263 1344 285 1327 285C1324 301 1302 299 1302 282C1288 278 1287 260 1301 256C1301 252 1304 250 1309 249Z" stroke="#923cff" stroke-width="4" stroke-linecap="round"/>
  <text class="font muted" x="1377" y="257" font-size="28">Multiple modes. One goal:</text>
  <text class="font white" x="1377" y="297" font-size="30" font-weight="850">Stronger thinking, better code.</text>

  <g>
    <text class="font white" x="712" y="404" font-size="31" font-weight="850">Train Across Multiple Thinking Modes</text>
    <path d="M552 392H690" stroke="url(#purplePink)" stroke-width="3" stroke-dasharray="11 11"/>
    <path d="M1232 392H1370" stroke="url(#cyanPurple)" stroke-width="3" stroke-dasharray="11 11"/>
    <circle cx="555" cy="392" r="5" fill="#a94cff"/>
    <circle cx="1370" cy="392" r="5" fill="#a94cff"/>
  </g>

  <g transform="translate(90 437)">
    <rect width="236" height="276" rx="18" fill="#071527" stroke="#1ea5ff" stroke-width="2"/>
    <circle cx="118" cy="76" r="46" stroke="#1ea5ff" stroke-width="9"/>
    <circle cx="118" cy="76" r="24" stroke="#1ea5ff" stroke-width="8"/>
    <path d="M118 76L168 26M151 23L183 16L176 49" stroke="#1ea5ff" stroke-width="8" stroke-linecap="round" stroke-linejoin="round"/>
    <text class="font cardTitle" x="34" y="158" fill="#26d2ff">Problem Solving</text>
    <text class="font cardBody" x="32" y="195">Break down problems</text>
    <text class="font cardBody" x="60" y="224">and find the right</text>
    <text class="font cardBody" x="83" y="253">approach.</text>
  </g>
  <g transform="translate(390 437)">
    <rect width="236" height="276" rx="18" fill="#141126" stroke="#d34dff" stroke-width="2"/>
    <path d="M118 54V93M77 126V158M159 126V158M77 126H159M118 93V126M77 158H55V180H99V158H77ZM159 158H137V180H181V158H159Z" stroke="#8949ff" stroke-width="10" stroke-linecap="round" stroke-linejoin="round"/>
    <text class="font cardTitle" x="16" y="158" fill="#f06cff">Algorithmic Thinking</text>
    <text class="font cardBody" x="55" y="195">Design efficient</text>
    <text class="font cardBody" x="59" y="224">algorithms and</text>
    <text class="font cardBody" x="72" y="253">data structures.</text>
  </g>
  <g transform="translate(690 437)">
    <rect width="236" height="276" rx="18" fill="#061c1a" stroke="#56ef8b" stroke-width="2"/>
    <path d="M90 78L63 105L90 132M146 78L173 105L146 132" stroke="#49e283" stroke-width="12" stroke-linecap="round" stroke-linejoin="round"/>
    <path d="M129 67L106 142" stroke="#49e283" stroke-width="10" stroke-linecap="round"/>
    <text class="font cardTitle" x="44" y="158" fill="#59ef92">Code Crafting</text>
    <text class="font cardBody" x="42" y="195">Write clean, correct,</text>
    <text class="font cardBody" x="59" y="224">and maintainable</text>
    <text class="font cardBody" x="93" y="253">code.</text>
  </g>
  <g transform="translate(990 437)">
    <rect width="236" height="276" rx="18" fill="#071527" stroke="#1ea5ff" stroke-width="2"/>
    <circle cx="104" cy="80" r="38" stroke="#28a8ff" stroke-width="10"/>
    <path d="M133 109L165 143" stroke="#28a8ff" stroke-width="10" stroke-linecap="round"/>
    <path d="M78 79C82 62 97 54 112 56" stroke="#83d8ff" stroke-width="5" stroke-linecap="round"/>
    <text class="font cardTitle" x="58" y="158" fill="#26d2ff">Debugging</text>
    <text class="font cardBody" x="39" y="195">Find issues, reason</text>
    <text class="font cardBody" x="43" y="224">deeply, and fix with</text>
    <text class="font cardBody" x="58" y="253">confidence.</text>
  </g>
  <g transform="translate(1290 437)">
    <rect width="236" height="276" rx="18" fill="#181126" stroke="#ed5dff" stroke-width="2"/>
    <path d="M118 63C94 63 76 82 76 105C76 122 85 137 100 145V165H136V145C151 137 160 122 160 105C160 82 142 63 118 63Z" stroke="#e15fff" stroke-width="8" stroke-linejoin="round"/>
    <path d="M102 184H134M108 202H128M118 31V48M66 52L78 65M170 52L158 65M43 105H60M176 105H193" stroke="#e15fff" stroke-width="6" stroke-linecap="round"/>
    <text class="font cardTitle" x="49" y="158" fill="#f06cff">Optimization</text>
    <text class="font cardBody" x="51" y="195">Think critically to</text>
    <text class="font cardBody" x="43" y="224">improve performance</text>
    <text class="font cardBody" x="62" y="253">and scalability.</text>
  </g>
  <g transform="translate(1590 437)">
    <rect width="236" height="276" rx="18" fill="#061c1a" stroke="#00dbba" stroke-width="2"/>
    <path d="M62 73C84 73 99 80 118 95C137 80 152 73 174 73V153C152 153 136 160 118 177C100 160 84 153 62 153V73Z" stroke="#1ee6c3" stroke-width="8" stroke-linejoin="round"/>
    <path d="M118 95V177M80 99H101M80 124H101M135 99H156M135 124H156" stroke="#1ee6c3" stroke-width="5" stroke-linecap="round"/>
    <text class="font cardTitle" x="52" y="158" fill="#18e8d1">Refactoring</text>
    <text class="font cardBody" x="54" y="195">Refine design,</text>
    <text class="font cardBody" x="42" y="224">improve readability,</text>
    <text class="font cardBody" x="58" y="253">and evolve code.</text>
  </g>

  <path d="M326 559H390M626 559H690M926 559H990M1226 559H1290M1526 559H1590" stroke="url(#cyanPurple)" stroke-width="4" stroke-dasharray="12 11"/>
  <path d="M208 724C350 781 511 748 510 724C565 754 740 754 808 724C898 758 1076 749 1108 724C1210 764 1394 758 1408 724C1518 773 1691 754 1708 724" stroke="url(#cyanPurple)" stroke-width="3" stroke-dasharray="9 12"/>
  <circle cx="208" cy="724" r="7" fill="#1ea5ff"/>
  <circle cx="510" cy="724" r="7" fill="#964cff"/>
  <circle cx="808" cy="724" r="7" fill="#56ef8b"/>
  <circle cx="1108" cy="724" r="7" fill="#1ea5ff"/>
  <circle cx="1408" cy="724" r="7" fill="#d64dff"/>
  <circle cx="1708" cy="724" r="7" fill="#00dbba"/>

  <rect x="68" y="783" width="1784" height="139" rx="18" fill="#071426" fill-opacity="0.88" stroke="url(#cyanPurple)" stroke-width="1.4"/>
  <g transform="translate(112 823)">
    <path d="M31 14C44 0 66 8 63 30C83 36 77 65 58 65C52 85 21 80 23 57C4 52 7 25 25 25C25 20 27 16 31 14Z" stroke="#1ea5ff" stroke-width="6" stroke-linecap="round"/>
    <text class="font" x="82" y="27" font-size="24" font-weight="800" fill="#5fe7ff">Deepen Your Thinking</text>
    <text class="font" x="82" y="60" font-size="21" fill="#f4f5ff">Build strong reasoning</text>
    <text class="font" x="82" y="88" font-size="21" fill="#f4f5ff">skills step by step.</text>
  </g>
  <path d="M433 815V895" stroke="#8992aa" stroke-opacity="0.7"/>
  <g transform="translate(492 825)">
    <path d="M0 70H15V40H0V70ZM30 70H45V20H30V70ZM60 70H75V0H60V70ZM0 24L31 0L49 20L82 -14" stroke="#1f8cff" stroke-width="7" stroke-linecap="round" stroke-linejoin="round"/>
    <text class="font" x="95" y="18" font-size="24" font-weight="800" fill="#9ed8ff">Level Up Continuously</text>
    <text class="font" x="95" y="52" font-size="21" fill="#f4f5ff">Practice regularly.</text>
    <text class="font" x="95" y="80" font-size="21" fill="#f4f5ff">Track your growth.</text>
  </g>
  <path d="M812 815V895" stroke="#8992aa" stroke-opacity="0.7"/>
  <g transform="translate(842 824)">
    <path d="M48 0V23M20 23C20 55 34 74 48 82C62 74 76 55 76 23H20ZM13 26H0C0 48 12 62 27 66M83 26H96C96 48 84 62 69 66" stroke="#834cff" stroke-width="7" stroke-linecap="round" stroke-linejoin="round"/>
    <text class="font" x="120" y="21" font-size="24" font-weight="800" fill="#c8b4ff">Learn Actively</text>
    <text class="font" x="120" y="55" font-size="21" fill="#f4f5ff">Hands-on challenges</text>
    <text class="font" x="120" y="83" font-size="21" fill="#f4f5ff">that make you better.</text>
  </g>
  <path d="M1125 815V895" stroke="#8992aa" stroke-opacity="0.7"/>
  <g transform="translate(1162 825)">
    <circle cx="33" cy="25" r="19" fill="#8b4cff"/>
    <circle cx="67" cy="25" r="19" fill="#8b4cff"/>
    <circle cx="50" cy="7" r="18" fill="#8b4cff"/>
    <path d="M9 80C12 52 88 52 91 80H9Z" fill="#8b4cff"/>
    <text class="font" x="118" y="18" font-size="24" font-weight="800" fill="#9ed8ff">Share &amp; Learn Together</text>
    <text class="font" x="118" y="52" font-size="21" fill="#f4f5ff">Exchange ideas and</text>
    <text class="font" x="118" y="80" font-size="21" fill="#f4f5ff">solutions with others.</text>
  </g>
  <path d="M1470 815V895" stroke="#8992aa" stroke-opacity="0.7"/>
  <g transform="translate(1495 818)">
    <path d="M50 0C70 18 86 19 102 24V61C102 88 76 102 50 111C24 102 -2 88 -2 61V24C14 19 30 18 50 0Z" stroke="#13e1d1" stroke-width="7" stroke-linejoin="round"/>
    <rect x="32" y="50" width="36" height="38" rx="6" fill="#13e1d1"/>
    <path d="M40 50V39C40 26 60 26 60 39V50" stroke="#13e1d1" stroke-width="7" stroke-linecap="round"/>
    <text class="font" x="122" y="27" font-size="24" font-weight="800" fill="#c8b4ff">Focused &amp; Distraction-Free</text>
    <text class="font" x="122" y="60" font-size="21" fill="#f4f5ff">A clean environment to</text>
    <text class="font" x="122" y="88" font-size="21" fill="#f4f5ff">think and code deeply.</text>
  </g>
</svg>
